<svg xmlns="http://www.w3.org/2000/svg" version="1.1" xmlns:xlink="http://www.w3.org/1999/xlink" width="512" height="512" x="0" y="0" viewBox="0 0 512 512" style="enable-background:new 0 0 512 512" xml:space="preserve" class=""><g><path d="M242.986 354.078c16.578 16.578 38.618 25.707 62.062 25.707s45.479-9.13 62.04-25.707c16.577-16.577 25.707-38.614 25.707-62.05s-9.13-45.473-25.705-62.048c-16.563-16.579-38.597-25.709-62.042-25.709s-45.483 9.13-62.062 25.707c-34.214 34.215-34.214 89.887 0 124.101zM254.3 241.29c13.556-13.555 31.578-21.021 50.747-21.021s37.183 7.464 50.726 21.021c13.556 13.556 21.021 31.575 21.021 50.737s-7.466 37.181-21.023 50.739c-13.541 13.554-31.556 21.018-50.724 21.018s-37.191-7.465-50.747-21.021c-27.971-27.977-27.975-73.499 0-101.474zm244.698 112.545V40.899a8 8 0 0 0-8-8H310.237a8.002 8.002 0 0 0-5.657 2.343l-49.944 49.945a8 8 0 0 0-2.343 5.657v97.804a115.642 115.642 0 0 0-29.319 21.316c-21.924 21.924-33.998 51.071-33.998 82.073 0 4.57.27 9.099.787 13.571v163.104h-16.371V256.325a8 8 0 0 0-8-8h-47.025a8 8 0 0 0-8 8v212.387H94.025V319.819a8 8 0 0 0-8-8H38.971a8 8 0 0 0-8 8v148.893h-9.972a8 8 0 0 0 0 16h321.184a8 8 0 0 0 0-16h-9.999v-63.877a115.44 115.44 0 0 0 33.713-13.968l16.299 23.657.004-.003c.274.398.581.775.927 1.121l59.441 59.441c6.416 6.416 14.853 9.625 23.291 9.625 8.363 0 16.73-3.151 23.14-9.454 6.185-5.57 9.729-13.363 9.986-21.972.276-9.232-3.3-18.262-9.812-24.775l-59.441-59.44a8.076 8.076 0 0 0-1.121-.927l.003-.004-9.148-6.303H491a8 8 0 0 0 8-8zM307.284 55.167V87.89h-32.722zm-72.995 166.111c19.509-19.509 45.136-29.264 70.763-29.264s51.254 9.754 70.763 29.264c18.902 18.902 29.312 44.032 29.312 70.759s-10.409 51.848-29.312 70.738c-39.018 39.019-102.508 39.019-141.527-.002-15.957-15.946-25.861-36.334-28.56-58.38-.007-.083-.018-.165-.027-.248a101.715 101.715 0 0 1-.724-12.108c0-26.728 10.41-51.857 29.312-70.759zm34.87 181.105v66.329h-16.371v-73.055a115.403 115.403 0 0 0 16.371 6.725zm-63.396-50.159a116.762 116.762 0 0 0 17.211 21.864 116.501 116.501 0 0 0 13.813 11.81v82.814h-31.024zm-79.396-87.899h31.025v204.387h-31.025zm-79.396 63.494h31.054v140.893H46.971zm269.213 140.893h-31.025v-62.388a117.016 117.016 0 0 0 31.026 1.176v61.211zm70.942-94.622a118.156 118.156 0 0 0 8.385-9.33l16.109 11.099-21.697 21.68-11.013-15.985a117.043 117.043 0 0 0 8.217-7.463zm90.731 65.731c3.408 3.408 5.279 8.14 5.134 12.982-.127 4.236-1.826 8.014-4.784 10.638-.117.104-.23.21-.341.32-6.626 6.604-17.384 6.609-23.984.008L400.1 409.987l23.972-23.953 53.786 53.786zm5.141-93.988h-75.043c8.604-16.4 13.17-34.745 13.17-53.797 0-31.001-12.073-60.149-33.997-82.073-32.089-32.088-78.443-41.417-118.835-28.003v-78.072h46.99a8 8 0 0 0 8-8v-46.99h159.715v296.936zm-28.276-86.079a8 8 0 0 1-8 8h-12.783a8 8 0 0 1 0-16h12.783a8 8 0 0 1 8 8zm0-78.631a8 8 0 0 1-8 8h-82.769a8 8 0 0 1 0-16h82.769a8 8 0 0 1 8 8zm0 39.315a8 8 0 0 1-8 8h-28.203a8 8 0 0 1 0-16h28.203a8 8 0 0 1 8 8zm0-78.631a8 8 0 0 1-8 8H304.569a8 8 0 0 1 0-16h142.153a8 8 0 0 1 8 8zm-98.769-39.315a8 8 0 0 1 8-8h82.769a8 8 0 0 1 0 16h-82.769a8 8 0 0 1-8-8zm98.769 196.577a8 8 0 0 1-8 8h-12.783a8 8 0 0 1 0-16h12.783a8 8 0 0 1 8 8zm-174.434 4.35a8 8 0 0 1 11.088-11.535l10.947 10.523 26.354-28.884a8 8 0 1 1 11.821 10.784l-31.889 34.95a8.003 8.003 0 0 1-11.454.375l-16.866-16.214zM99.204 224.924c47.534 0 86.206-38.672 86.206-86.206v-8h-78.206V52.515h-8c-47.533 0-86.205 38.671-86.205 86.205s38.672 86.206 86.205 86.206zm69.753-78.206c-3.983 34.958-33.746 62.206-69.753 62.206-15.328 0-29.513-4.952-41.07-13.32l44.58-48.886zM91.204 68.966v66.628l-44.885 49.221c-10.772-12.343-17.32-28.465-17.32-46.096 0-36.006 27.248-65.768 62.205-69.752zm119.434 44.524c0-47.534-38.672-86.205-86.205-86.205h-8v94.205h94.205zm-78.205-8V43.738c32.331 3.685 58.067 29.421 61.752 61.752z" fill="#d2b583" opacity="1" data-original="#000000" class=""></path><path fill="#f8feff" d="M395.512 364.762a117.938 117.938 0 0 1-8.385 9.33 116.797 116.797 0 0 1-8.217 7.463l11.013 15.985 21.697-21.68-16.109-11.099z" opacity="1" data-original="#a8d3d8" class=""></path><path fill="#ffffff" d="M375.814 221.278c-19.509-19.509-45.136-29.264-70.763-29.264s-51.254 9.754-70.763 29.264c-18.902 18.902-29.312 44.032-29.312 70.759 0 4.079.246 8.12.724 12.108.01.083.02.165.027.248 2.699 22.046 12.603 42.435 28.56 58.38 39.02 39.021 102.51 39.021 141.527.002 18.902-18.89 29.312-44.011 29.312-70.738s-10.409-51.857-29.312-70.759zm-8.727 132.799c-16.562 16.577-38.595 25.707-62.04 25.707s-45.483-9.129-62.062-25.707c-34.214-34.214-34.214-89.886 0-124.101 16.578-16.577 38.618-25.707 62.062-25.707s45.479 9.131 62.042 25.709c16.575 16.575 25.705 38.612 25.705 62.048s-9.13 45.473-25.707 62.05z" opacity="1" data-original="#678d98" class=""></path><path fill="#ffffff" d="M355.773 241.29c-13.543-13.556-31.558-21.021-50.726-21.021s-37.191 7.465-50.747 21.021c-27.975 27.975-27.971 73.498 0 101.474 13.556 13.555 31.578 21.021 50.747 21.021s37.183-7.464 50.724-21.018c13.558-13.558 21.023-31.577 21.023-50.739s-7.466-37.182-21.021-50.737zm-15.275 43.02-31.889 34.95a8.003 8.003 0 0 1-11.454.375l-16.866-16.214a8 8 0 0 1 11.088-11.535l10.947 10.523 26.354-28.884a8 8 0 1 1 11.821 10.784z" opacity="1" data-original="#c8effe" class=""></path><path fill="#ffffff" d="M453.883 463.771c6.601 6.601 17.358 6.596 23.984-.008.11-.11.224-.217.341-.32 2.958-2.624 4.657-6.402 4.784-10.638.146-4.843-1.726-9.575-5.134-12.982l-53.786-53.786L400.1 409.99l53.782 53.782z" opacity="1" data-original="#678d98" class=""></path><path fill="#ffffff" d="M46.972 327.82h31.054v140.893H46.972z" opacity="1" data-original="#f9d641" class=""></path><path fill="#ffffff" d="M285.159 406.325v62.388h31.025v-61.211a116.947 116.947 0 0 1-31.026-1.176z" opacity="1" data-original="#f46240" class=""></path><path fill="#c3d1d0" d="M307.284 55.167 274.562 87.89h32.722z" opacity="1" data-original="#c3d1d0" class=""></path><path fill="#ffffff" d="M205.764 352.225v116.488h31.024v-82.814a116.328 116.328 0 0 1-13.813-11.81 116.794 116.794 0 0 1-17.211-21.864z" opacity="1" data-original="#01d0fb" class=""></path><path fill="#ffffff" d="M132.434 43.74v61.752h61.752c-3.685-32.331-29.421-58.067-61.752-61.752z" opacity="1" data-original="#f46240" class=""></path><path fill="#ffffff" d="M58.135 195.606c11.558 8.368 25.743 13.32 41.07 13.32 36.007 0 65.77-27.248 69.753-62.206h-66.243z" opacity="1" data-original="#f9d641" class=""></path><path fill="#ffffff" d="M91.205 68.968C56.248 72.952 29 102.714 29 138.72c0 17.632 6.548 33.753 17.32 46.096l44.885-49.221V68.967z" opacity="1" data-original="#01d0fb" class=""></path><path fill="#ffffff" d="M126.367 264.326h31.025v204.387h-31.025z" opacity="1" data-original="#30e5a3" class=""></path><path fill="#ffffff" d="M323.284 95.89a8 8 0 0 1-8 8h-46.99v78.072c40.392-13.414 86.746-4.085 118.835 28.003 21.924 21.924 33.997 51.071 33.997 82.073 0 19.052-4.567 37.397-13.17 53.797h75.043V48.899H323.284v46.99zm123.438 211.182h-12.783a8 8 0 0 1 0-16h12.783a8 8 0 0 1 0 16zm0-39.315h-12.783a8 8 0 0 1 0-16h12.783a8 8 0 0 1 0 16zm0-39.315h-28.203a8 8 0 0 1 0-16h28.203a8 8 0 0 1 0 16zm0-39.315h-82.769a8 8 0 0 1 0-16h82.769a8 8 0 0 1 0 16zm0-39.315H304.569a8 8 0 0 1 0-16h142.153a8 8 0 0 1 0 16zm-82.769-55.315h82.769a8 8 0 0 1 0 16h-82.769a8 8 0 0 1 0-16z" opacity="1" data-original="#e6e8e8" class=""></path></g></svg>