<svg xmlns="http://www.w3.org/2000/svg" version="1.1" xmlns:xlink="http://www.w3.org/1999/xlink" width="512" height="512" x="0" y="0" viewBox="0 0 510 510" style="enable-background:new 0 0 512 512" xml:space="preserve" fill-rule="evenodd" class=""><g><circle cx="79.775" cy="72.906" r="58.132" fill="#ffd064" opacity="1" data-original="#ffd064"></circle><path fill="#ffc338" d="M74.775 14.986a59.084 59.084 0 0 1 5-.212c32.084 0 58.132 26.048 58.132 58.132 0 32.083-26.048 58.131-58.132 58.131a58.67 58.67 0 0 1-5-.212c29.747-2.539 53.132-27.52 53.132-57.919 0-30.4-23.385-55.381-53.132-57.92z" opacity="1" data-original="#ffc338" class=""></path><circle cx="430.225" cy="72.906" r="58.132" fill="#ffd064" opacity="1" data-original="#ffd064"></circle><path fill="#ffc338" d="M425.225 14.986a59.048 59.048 0 0 1 5-.212c32.083 0 58.131 26.048 58.131 58.132 0 32.083-26.048 58.131-58.131 58.131-1.685 0-3.352-.071-5-.212 29.746-2.539 53.131-27.52 53.131-57.919 0-30.4-23.385-55.381-53.131-57.92z" opacity="1" data-original="#ffc338" class=""></path><circle cx="430.225" cy="436.642" r="58.132" fill="#ffd064" opacity="1" data-original="#ffd064"></circle><path fill="#ffc338" d="M425.225 378.723a58.633 58.633 0 0 1 5-.213c32.083 0 58.131 26.048 58.131 58.132s-26.048 58.132-58.131 58.132c-1.685 0-3.352-.072-5-.213 29.746-2.539 53.131-27.519 53.131-57.919s-23.385-55.38-53.131-57.919z" opacity="1" data-original="#ffc338" class=""></path><circle cx="79.775" cy="436.642" r="58.132" fill="#ffd064" opacity="1" data-original="#ffd064"></circle><path fill="#ffc338" d="M74.775 378.723a58.668 58.668 0 0 1 5-.213c32.084 0 58.132 26.048 58.132 58.132s-26.048 58.132-58.132 58.132c-1.684 0-3.351-.072-5-.213 29.747-2.539 53.132-27.519 53.132-57.919s-23.385-55.38-53.132-57.919z" opacity="1" data-original="#ffc338" class=""></path><path fill="#fdfeff" d="m262.291 103.11 123.44 52.899c4.78 2.056 7.697 6.478 7.697 11.689v103.05c0 81.775-58.565 144.929-137.806 158.745-79.242-13.816-137.806-76.97-137.806-158.745v-103.05c0-5.211 2.916-9.633 7.697-11.689l123.44-52.899c4.422-1.889 8.916-1.889 13.338 0z" opacity="1" data-original="#8ac9fe" class=""></path><path fill="#ffffff" d="m374.544 151.204 11.187 4.805c4.78 2.056 7.697 6.478 7.697 11.689v103.05c0 27.872-6.789 53.568-18.884 75.871z" opacity="1" data-original="#60b7ff" class=""></path><path fill="#eceff1" d="m312.311 279.054-26.237-2.764v-56.05c0-17.047-14.027-31.075-31.074-31.075s-31.074 14.028-31.074 31.075v58.814l-26.237-6.959V220.24c0-31.523 25.776-57.312 57.311-57.312 31.523 0 57.311 25.789 57.311 57.312z" opacity="1" data-original="#eceff1" class=""></path><path fill="#fff9ff" d="M184.837 235.759h140.326c5.771 0 10.475 4.704 10.475 10.475v111.531c0 5.759-4.704 10.463-10.475 10.463H184.837c-5.771 0-10.475-4.704-10.475-10.463V246.234c0-5.771 4.704-10.475 10.475-10.475z" opacity="1" data-original="#837683" class=""></path><path fill="#685e68" d="M313.524 235.759h11.639c5.771 0 10.475 4.704 10.475 10.475v111.531c0 5.759-4.704 10.463-10.475 10.463h-11.639c5.771 0 10.475-4.704 10.475-10.463V246.234c0-5.771-4.704-10.475-10.475-10.475z" opacity="1" data-original="#685e68"></path><path fill="#eceff1" d="M255 262.202c11.263 0 20.393 9.129 20.393 20.393 0 7.347-3.88 13.785-9.699 17.374v31.123c0 5.88-4.814 10.693-10.694 10.693-5.892 0-10.706-4.813-10.706-10.693v-31.123c-5.819-3.589-9.699-10.027-9.699-17.374 0-11.264 9.129-20.393 20.405-20.393z" opacity="1" data-original="#eceff1" class=""></path><path d="m258.152 94.567 137.184 58.803a8 8 0 0 1 4.848 7.353v110.929c0 81.063-58.996 151.113-138.807 165.027l-4.999.874a8.021 8.021 0 0 1-2.756 0l-4.995-.874c-79.815-13.914-138.811-83.964-138.811-165.027V160.723a8 8 0 0 1 4.848-7.353l137.184-58.803a7.998 7.998 0 0 1 6.304 0zM255 110.623l-129.184 55.375v105.654c0 73.322 53.366 136.68 125.559 149.265l3.625.634 3.625-.634c72.193-12.585 125.559-75.943 125.559-149.265V165.998zm63.013 122.666h4.347c9.962 0 18.04 8.12 18.04 18.04v107.068c0 9.962-8.078 18.04-18.04 18.04H187.663c-9.957 0-18.063-8.083-18.063-18.04V251.329c0-9.915 8.106-18.04 18.063-18.04h4.324v-15.11c0-34.661 28.364-63.025 63.025-63.025 34.662 0 63.001 28.363 63.001 63.025zm-110.026 0h9.206v-15.11c0-20.769 17.079-37.842 37.819-37.842 20.739 0 37.818 17.073 37.818 37.842v15.11h9.183v-15.11c0-25.86-21.141-47.025-47.001-47.025-25.862 0-47.025 21.164-47.025 47.025zm25.206 0h43.637v-15.11c0-11.985-9.85-21.842-21.818-21.842s-21.819 9.857-21.819 21.842zm-45.53 16c-1.132 0-2.063.913-2.063 2.04v107.068c0 1.132.931 2.04 2.063 2.04H322.36a2.04 2.04 0 0 0 2.04-2.04V251.329c0-1.122-.913-2.04-2.04-2.04zm67.349 9.369c15.225 0 27.568 12.366 27.568 27.592a27.492 27.492 0 0 1-9.295 20.668v25.877c0 10.069-8.246 18.273-18.273 18.273-10.069 0-18.274-8.204-18.274-18.273 0 0 0-25.876.001-25.875-5.716-5.051-9.319-12.433-9.319-20.67 0-15.223 12.369-27.592 27.592-27.592zm0 16c-6.396 0-11.592 5.196-11.592 11.592 0 4.177 2.208 7.83 5.517 9.87a7.999 7.999 0 0 1 3.801 6.809v29.866a2.278 2.278 0 0 0 2.274 2.273 2.28 2.28 0 0 0 2.273-2.273v-29.866a8.001 8.001 0 0 1 3.801-6.809 11.559 11.559 0 0 0 5.494-9.87c0-6.393-5.176-11.592-11.568-11.592zM79.775 7c36.5 0 66.132 29.633 66.132 66.132s-29.632 66.132-66.132 66.132c-36.499 0-66.131-29.633-66.131-66.132S43.276 7 79.775 7zm0 16c-27.668 0-50.131 22.463-50.131 50.132 0 27.668 22.463 50.132 50.131 50.132 27.669 0 50.132-22.464 50.132-50.132C129.907 45.463 107.444 23 79.775 23zM48.266 80.35a8.004 8.004 0 0 1-.01-11.314 8.004 8.004 0 0 1 11.314-.01l9.691 9.676 30.998-28.106a8.005 8.005 0 0 1 11.301.553c2.965 3.271 2.718 8.335-.553 11.3L74.37 95.668a8.002 8.002 0 0 1-11.026-.265zM430.225 7c36.499 0 66.131 29.633 66.131 66.132s-29.632 66.132-66.131 66.132c-36.5 0-66.132-29.633-66.132-66.132S393.725 7 430.225 7zm0 16c-27.669 0-50.132 22.463-50.132 50.132 0 27.668 22.463 50.132 50.132 50.132 27.668 0 50.131-22.464 50.131-50.132 0-27.669-22.463-50.132-50.131-50.132zm-31.51 57.35a8.004 8.004 0 0 1-.01-11.314 8.004 8.004 0 0 1 11.314-.01l9.692 9.676 30.998-28.106c3.271-2.966 8.334-2.718 11.3.553s2.718 8.335-.553 11.3l-36.637 33.219a8.002 8.002 0 0 1-11.026-.265zm31.51 290.386c36.499 0 66.131 29.633 66.131 66.132S466.724 503 430.225 503c-36.5 0-66.132-29.633-66.132-66.132s29.632-66.132 66.132-66.132zm0 16c-27.669 0-50.132 22.464-50.132 50.132 0 27.669 22.463 50.132 50.132 50.132 27.668 0 50.131-22.463 50.131-50.132 0-27.668-22.463-50.132-50.131-50.132zm-31.51 57.35c-3.125-3.119-3.129-8.189-.01-11.314a8.004 8.004 0 0 1 11.314-.009l9.692 9.675 30.998-28.106a8.005 8.005 0 0 1 11.3.553 8.005 8.005 0 0 1-.553 11.301l-36.637 33.218a8 8 0 0 1-11.026-.265zm-318.94-73.35c36.5 0 66.132 29.633 66.132 66.132S116.275 503 79.775 503c-36.499 0-66.131-29.633-66.131-66.132s29.632-66.132 66.131-66.132zm0 16c-27.668 0-50.131 22.464-50.131 50.132 0 27.669 22.463 50.132 50.131 50.132 27.669 0 50.132-22.463 50.132-50.132 0-27.668-22.463-50.132-50.132-50.132zm-31.509 57.35c-3.125-3.119-3.129-8.189-.01-11.314a8.004 8.004 0 0 1 11.314-.009l9.691 9.675 30.998-28.106a8.006 8.006 0 0 1 11.301.553 8.005 8.005 0 0 1-.553 11.301L74.37 459.404a8 8 0 0 1-11.026-.265zm12.013-96.781a8.003 8.003 0 0 1-4.282 10.472 8.004 8.004 0 0 1-10.472-4.282c-11.323-26.988-17.584-56.618-17.584-87.699 0-38.854 9.782-75.441 27.011-107.433 2.094-3.887 6.95-5.344 10.837-3.25a8.003 8.003 0 0 1 3.25 10.837c-16.012 29.732-25.098 63.737-25.098 99.846 0 28.887 5.814 56.426 16.338 81.509zm276.528 113.087a8.002 8.002 0 0 1 10.478 4.265 8.003 8.003 0 0 1-4.265 10.479c-27.074 11.409-56.816 17.719-88.02 17.719-32.703 0-63.8-6.931-91.903-19.399a8.003 8.003 0 0 1-4.069-10.556 8.005 8.005 0 0 1 10.557-4.069c26.119 11.587 55.021 18.024 85.415 18.024 29.001 0 56.644-5.86 81.807-16.463zm103.914-294.886a8.004 8.004 0 0 1 3.224-10.845 8.004 8.004 0 0 1 10.845 3.224c17.389 32.106 27.269 68.864 27.269 107.911 0 31.083-6.261 60.715-17.586 87.704A8.005 8.005 0 0 1 454 357.782a8.003 8.003 0 0 1-4.281-10.472c10.525-25.085 16.34-52.626 16.34-81.514 0-36.289-9.177-70.452-25.338-100.29zM175.167 70.381c-4.086 1.673-8.762-.287-10.435-4.373s.286-8.761 4.372-10.434C195.607 44.722 224.61 38.737 255 38.737c31.025 0 60.604 6.238 87.553 17.523a8.003 8.003 0 0 1 4.289 10.469 8.003 8.003 0 0 1-10.469 4.289C311.327 60.53 283.834 54.737 255 54.737c-28.245 0-55.201 5.558-79.833 15.644z" fill="#d2b583" opacity="1" data-original="#000000" class=""></path></g></svg>